<mxfile host="Electron" agent="Mozilla/5.0 (Macintosh; Intel Mac OS X 10_15_7) AppleWebKit/537.36 (KHTML, like Gecko) draw.io/24.7.17 Chrome/128.0.6613.36 Electron/32.0.1 Safari/537.36" version="24.7.17">
  <diagram id="23iRSUPoRavnBvh4doch" name="Page-1">
    <mxGraphModel dx="2931" dy="1104" grid="1" gridSize="10" guides="1" tooltips="1" connect="1" arrows="1" fold="1" page="1" pageScale="1" pageWidth="827" pageHeight="1169" math="0" shadow="0">
      <root>
        <mxCell id="0" />
        <mxCell id="1" parent="0" />
        <mxCell id="Gg7pWfB9Hn6mfg136wM4-17" value="" style="group" parent="1" vertex="1" connectable="0">
          <mxGeometry x="1680" y="280" width="120" height="120" as="geometry" />
        </mxCell>
        <mxCell id="Gg7pWfB9Hn6mfg136wM4-10" style="edgeStyle=orthogonalEdgeStyle;rounded=0;orthogonalLoop=1;jettySize=auto;html=1;exitX=0.25;exitY=1;exitDx=0;exitDy=0;entryX=0.5;entryY=0;entryDx=0;entryDy=0;" parent="Gg7pWfB9Hn6mfg136wM4-17" source="2" target="Gg7pWfB9Hn6mfg136wM4-6" edge="1">
          <mxGeometry relative="1" as="geometry" />
        </mxCell>
        <mxCell id="Gg7pWfB9Hn6mfg136wM4-11" style="edgeStyle=orthogonalEdgeStyle;rounded=0;orthogonalLoop=1;jettySize=auto;html=1;exitX=0.75;exitY=1;exitDx=0;exitDy=0;entryX=0.5;entryY=0;entryDx=0;entryDy=0;" parent="Gg7pWfB9Hn6mfg136wM4-17" source="2" target="Gg7pWfB9Hn6mfg136wM4-7" edge="1">
          <mxGeometry relative="1" as="geometry" />
        </mxCell>
        <mxCell id="2" value="incident&lt;div&gt;&lt;span style=&quot;background-color: initial;&quot;&gt;impact: 1&lt;/span&gt;&lt;br&gt;&lt;/div&gt;" style="rounded=0;whiteSpace=wrap;html=1;" parent="Gg7pWfB9Hn6mfg136wM4-17" vertex="1">
          <mxGeometry width="120" height="40" as="geometry" />
        </mxCell>
        <mxCell id="Gg7pWfB9Hn6mfg136wM4-6" value="comp&lt;div&gt;1&lt;/div&gt;" style="rounded=0;whiteSpace=wrap;html=1;" parent="Gg7pWfB9Hn6mfg136wM4-17" vertex="1">
          <mxGeometry y="80" width="40" height="40" as="geometry" />
        </mxCell>
        <mxCell id="Gg7pWfB9Hn6mfg136wM4-7" value="comp&lt;div&gt;3&lt;/div&gt;" style="rounded=0;whiteSpace=wrap;html=1;" parent="Gg7pWfB9Hn6mfg136wM4-17" vertex="1">
          <mxGeometry x="80" y="80" width="40" height="40" as="geometry" />
        </mxCell>
        <mxCell id="Gg7pWfB9Hn6mfg136wM4-23" value="" style="edgeStyle=orthogonalEdgeStyle;rounded=0;orthogonalLoop=1;jettySize=auto;html=1;" parent="1" source="Gg7pWfB9Hn6mfg136wM4-20" target="Gg7pWfB9Hn6mfg136wM4-22" edge="1">
          <mxGeometry relative="1" as="geometry" />
        </mxCell>
        <mxCell id="Gg7pWfB9Hn6mfg136wM4-20" value="" style="ellipse;" parent="1" vertex="1">
          <mxGeometry x="370" y="690" width="30" height="30" as="geometry" />
        </mxCell>
        <mxCell id="Gg7pWfB9Hn6mfg136wM4-21" value="create an incident" style="text;html=1;align=center;verticalAlign=middle;resizable=0;points=[];autosize=1;strokeColor=none;fillColor=none;" parent="1" vertex="1">
          <mxGeometry x="165" y="690" width="120" height="30" as="geometry" />
        </mxCell>
        <mxCell id="Gg7pWfB9Hn6mfg136wM4-25" value="" style="edgeStyle=orthogonalEdgeStyle;rounded=0;orthogonalLoop=1;jettySize=auto;html=1;" parent="1" source="Gg7pWfB9Hn6mfg136wM4-22" target="Gg7pWfB9Hn6mfg136wM4-24" edge="1">
          <mxGeometry relative="1" as="geometry" />
        </mxCell>
        <mxCell id="Gg7pWfB9Hn6mfg136wM4-22" value="get opened&lt;div&gt;incidents&lt;/div&gt;" style="html=1;whiteSpace=wrap;" parent="1" vertex="1">
          <mxGeometry x="330" y="770" width="110" height="50" as="geometry" />
        </mxCell>
        <mxCell id="Gg7pWfB9Hn6mfg136wM4-27" value="" style="edgeStyle=orthogonalEdgeStyle;rounded=0;orthogonalLoop=1;jettySize=auto;html=1;" parent="1" source="Gg7pWfB9Hn6mfg136wM4-24" target="Gg7pWfB9Hn6mfg136wM4-26" edge="1">
          <mxGeometry relative="1" as="geometry" />
        </mxCell>
        <mxCell id="Gg7pWfB9Hn6mfg136wM4-28" value="NO" style="edgeLabel;html=1;align=center;verticalAlign=middle;resizable=0;points=[];" parent="Gg7pWfB9Hn6mfg136wM4-27" vertex="1" connectable="0">
          <mxGeometry x="-0.1222" y="1" relative="1" as="geometry">
            <mxPoint as="offset" />
          </mxGeometry>
        </mxCell>
        <mxCell id="Gg7pWfB9Hn6mfg136wM4-34" value="" style="edgeStyle=orthogonalEdgeStyle;rounded=0;orthogonalLoop=1;jettySize=auto;html=1;" parent="1" source="Gg7pWfB9Hn6mfg136wM4-24" target="Gg7pWfB9Hn6mfg136wM4-33" edge="1">
          <mxGeometry relative="1" as="geometry" />
        </mxCell>
        <mxCell id="Gg7pWfB9Hn6mfg136wM4-35" value="YES" style="edgeLabel;html=1;align=center;verticalAlign=middle;resizable=0;points=[];" parent="Gg7pWfB9Hn6mfg136wM4-34" vertex="1" connectable="0">
          <mxGeometry x="-0.2593" y="-1" relative="1" as="geometry">
            <mxPoint as="offset" />
          </mxGeometry>
        </mxCell>
        <mxCell id="Gg7pWfB9Hn6mfg136wM4-24" value="incidents&lt;div&gt;exist&lt;/div&gt;" style="rhombus;whiteSpace=wrap;html=1;" parent="1" vertex="1">
          <mxGeometry x="345" y="885" width="80" height="80" as="geometry" />
        </mxCell>
        <mxCell id="Gg7pWfB9Hn6mfg136wM4-26" value="create the incident" style="whiteSpace=wrap;html=1;" parent="1" vertex="1">
          <mxGeometry x="165" y="895" width="120" height="60" as="geometry" />
        </mxCell>
        <mxCell id="Gg7pWfB9Hn6mfg136wM4-32" value="&lt;div&gt;{&lt;/div&gt;&lt;div&gt;&amp;nbsp; &quot;title&quot;: &quot;Incident&quot;,&lt;/div&gt;&lt;div&gt;&amp;nbsp; &quot;description&quot;: &quot;any description&quot;,&lt;/div&gt;&lt;div&gt;&amp;nbsp; &quot;components&quot;: [1,2],&lt;/div&gt;&lt;div&gt;&amp;nbsp; &quot;impact&quot;: 0,&lt;/div&gt;&lt;div&gt;&amp;nbsp; &quot;start_date&quot;: &quot;2006-01-01T12:00:00Z&quot;,&lt;/div&gt;&lt;div&gt;&amp;nbsp; &quot;end_date&quot;: &quot;2006-01-02T12:00:00Z&quot;,&lt;/div&gt;&lt;div&gt;&amp;nbsp; &quot;system&quot;: false&lt;/div&gt;&lt;div&gt;}&lt;/div&gt;" style="text;html=1;align=left;verticalAlign=middle;resizable=0;points=[];autosize=1;strokeColor=none;fillColor=none;" parent="1" vertex="1">
          <mxGeometry x="45" y="713" width="230" height="140" as="geometry" />
        </mxCell>
        <mxCell id="Gg7pWfB9Hn6mfg136wM4-37" value="" style="edgeStyle=orthogonalEdgeStyle;rounded=0;orthogonalLoop=1;jettySize=auto;html=1;" parent="1" source="Gg7pWfB9Hn6mfg136wM4-33" target="Gg7pWfB9Hn6mfg136wM4-36" edge="1">
          <mxGeometry relative="1" as="geometry" />
        </mxCell>
        <mxCell id="Gg7pWfB9Hn6mfg136wM4-33" value="get component from incident" style="whiteSpace=wrap;html=1;" parent="1" vertex="1">
          <mxGeometry x="325" y="1055" width="120" height="60" as="geometry" />
        </mxCell>
        <mxCell id="Gg7pWfB9Hn6mfg136wM4-43" value="" style="edgeStyle=orthogonalEdgeStyle;rounded=0;orthogonalLoop=1;jettySize=auto;html=1;" parent="1" source="Gg7pWfB9Hn6mfg136wM4-36" target="Gg7pWfB9Hn6mfg136wM4-42" edge="1">
          <mxGeometry relative="1" as="geometry" />
        </mxCell>
        <mxCell id="Gg7pWfB9Hn6mfg136wM4-49" value="YES" style="edgeLabel;html=1;align=center;verticalAlign=middle;resizable=0;points=[];" parent="Gg7pWfB9Hn6mfg136wM4-43" vertex="1" connectable="0">
          <mxGeometry x="-0.0333" y="1" relative="1" as="geometry">
            <mxPoint as="offset" />
          </mxGeometry>
        </mxCell>
        <mxCell id="Gg7pWfB9Hn6mfg136wM4-73" value="" style="edgeStyle=orthogonalEdgeStyle;rounded=0;orthogonalLoop=1;jettySize=auto;html=1;entryX=0.5;entryY=0;entryDx=0;entryDy=0;" parent="1" source="Gg7pWfB9Hn6mfg136wM4-36" target="QH_-a50_sv9gxjxql_aS-3" edge="1">
          <mxGeometry relative="1" as="geometry" />
        </mxCell>
        <mxCell id="Gg7pWfB9Hn6mfg136wM4-74" value="NO" style="edgeLabel;html=1;align=center;verticalAlign=middle;resizable=0;points=[];" parent="Gg7pWfB9Hn6mfg136wM4-73" vertex="1" connectable="0">
          <mxGeometry x="-0.3111" y="2" relative="1" as="geometry">
            <mxPoint as="offset" />
          </mxGeometry>
        </mxCell>
        <mxCell id="Gg7pWfB9Hn6mfg136wM4-36" value="Do we have an incident with this component?" style="rhombus;whiteSpace=wrap;html=1;" parent="1" vertex="1">
          <mxGeometry x="345" y="1185" width="80" height="80" as="geometry" />
        </mxCell>
        <mxCell id="Gg7pWfB9Hn6mfg136wM4-97" style="edgeStyle=orthogonalEdgeStyle;rounded=0;orthogonalLoop=1;jettySize=auto;html=1;exitX=0.5;exitY=1;exitDx=0;exitDy=0;entryX=1;entryY=0.5;entryDx=0;entryDy=0;" parent="1" source="Gg7pWfB9Hn6mfg136wM4-38" target="Gg7pWfB9Hn6mfg136wM4-93" edge="1">
          <mxGeometry relative="1" as="geometry">
            <mxPoint x="450" y="2060" as="targetPoint" />
          </mxGeometry>
        </mxCell>
        <mxCell id="Gg7pWfB9Hn6mfg136wM4-38" value="add component to the existed incident" style="whiteSpace=wrap;html=1;" parent="1" vertex="1">
          <mxGeometry x="760" y="1753" width="120" height="60" as="geometry" />
        </mxCell>
        <mxCell id="Gg7pWfB9Hn6mfg136wM4-45" value="" style="edgeStyle=orthogonalEdgeStyle;rounded=0;orthogonalLoop=1;jettySize=auto;html=1;" parent="1" source="Gg7pWfB9Hn6mfg136wM4-42" target="Gg7pWfB9Hn6mfg136wM4-44" edge="1">
          <mxGeometry relative="1" as="geometry" />
        </mxCell>
        <mxCell id="Gg7pWfB9Hn6mfg136wM4-48" value="YES" style="edgeLabel;html=1;align=center;verticalAlign=middle;resizable=0;points=[];" parent="Gg7pWfB9Hn6mfg136wM4-45" vertex="1" connectable="0">
          <mxGeometry x="-0.0556" y="1" relative="1" as="geometry">
            <mxPoint as="offset" />
          </mxGeometry>
        </mxCell>
        <mxCell id="Gg7pWfB9Hn6mfg136wM4-54" value="" style="edgeStyle=orthogonalEdgeStyle;rounded=0;orthogonalLoop=1;jettySize=auto;html=1;" parent="1" source="Gg7pWfB9Hn6mfg136wM4-42" target="Gg7pWfB9Hn6mfg136wM4-53" edge="1">
          <mxGeometry relative="1" as="geometry" />
        </mxCell>
        <mxCell id="Gg7pWfB9Hn6mfg136wM4-61" value="NO" style="edgeLabel;html=1;align=center;verticalAlign=middle;resizable=0;points=[];" parent="Gg7pWfB9Hn6mfg136wM4-54" vertex="1" connectable="0">
          <mxGeometry x="-0.2167" relative="1" as="geometry">
            <mxPoint as="offset" />
          </mxGeometry>
        </mxCell>
        <mxCell id="Gg7pWfB9Hn6mfg136wM4-42" value="Is this incident in the maintenance status?" style="rhombus;whiteSpace=wrap;html=1;" parent="1" vertex="1">
          <mxGeometry x="345" y="1345" width="80" height="80" as="geometry" />
        </mxCell>
        <mxCell id="Gg7pWfB9Hn6mfg136wM4-65" value="" style="edgeStyle=orthogonalEdgeStyle;rounded=0;orthogonalLoop=1;jettySize=auto;html=1;" parent="1" source="Gg7pWfB9Hn6mfg136wM4-44" target="Gg7pWfB9Hn6mfg136wM4-64" edge="1">
          <mxGeometry relative="1" as="geometry" />
        </mxCell>
        <mxCell id="Gg7pWfB9Hn6mfg136wM4-44" value="skip handle for this component" style="whiteSpace=wrap;html=1;" parent="1" vertex="1">
          <mxGeometry x="165" y="1355" width="120" height="60" as="geometry" />
        </mxCell>
        <mxCell id="Gg7pWfB9Hn6mfg136wM4-56" value="" style="edgeStyle=orthogonalEdgeStyle;rounded=0;orthogonalLoop=1;jettySize=auto;html=1;" parent="1" source="Gg7pWfB9Hn6mfg136wM4-53" target="Gg7pWfB9Hn6mfg136wM4-55" edge="1">
          <mxGeometry relative="1" as="geometry" />
        </mxCell>
        <mxCell id="Gg7pWfB9Hn6mfg136wM4-57" value="YES" style="edgeLabel;html=1;align=center;verticalAlign=middle;resizable=0;points=[];" parent="Gg7pWfB9Hn6mfg136wM4-56" vertex="1" connectable="0">
          <mxGeometry x="-0.0111" y="1" relative="1" as="geometry">
            <mxPoint as="offset" />
          </mxGeometry>
        </mxCell>
        <mxCell id="Gg7pWfB9Hn6mfg136wM4-68" value="" style="edgeStyle=orthogonalEdgeStyle;rounded=0;orthogonalLoop=1;jettySize=auto;html=1;" parent="1" source="Gg7pWfB9Hn6mfg136wM4-53" target="Gg7pWfB9Hn6mfg136wM4-67" edge="1">
          <mxGeometry relative="1" as="geometry" />
        </mxCell>
        <mxCell id="Gg7pWfB9Hn6mfg136wM4-91" value="NO" style="edgeLabel;html=1;align=center;verticalAlign=middle;resizable=0;points=[];" parent="Gg7pWfB9Hn6mfg136wM4-68" vertex="1" connectable="0">
          <mxGeometry x="-0.1333" y="1" relative="1" as="geometry">
            <mxPoint as="offset" />
          </mxGeometry>
        </mxCell>
        <mxCell id="Gg7pWfB9Hn6mfg136wM4-53" value="founded incident impact is more or eq than given?" style="rhombus;whiteSpace=wrap;html=1;" parent="1" vertex="1">
          <mxGeometry x="345" y="1505" width="80" height="80" as="geometry" />
        </mxCell>
        <mxCell id="Gg7pWfB9Hn6mfg136wM4-66" style="edgeStyle=orthogonalEdgeStyle;rounded=0;orthogonalLoop=1;jettySize=auto;html=1;exitX=0;exitY=0.5;exitDx=0;exitDy=0;entryX=0.75;entryY=0;entryDx=0;entryDy=0;" parent="1" source="Gg7pWfB9Hn6mfg136wM4-55" target="Gg7pWfB9Hn6mfg136wM4-64" edge="1">
          <mxGeometry relative="1" as="geometry" />
        </mxCell>
        <mxCell id="Gg7pWfB9Hn6mfg136wM4-55" value="Do nothing" style="whiteSpace=wrap;html=1;" parent="1" vertex="1">
          <mxGeometry x="165" y="1515" width="120" height="60" as="geometry" />
        </mxCell>
        <mxCell id="Gg7pWfB9Hn6mfg136wM4-321" value="" style="edgeStyle=orthogonalEdgeStyle;rounded=0;orthogonalLoop=1;jettySize=auto;html=1;" parent="1" source="Gg7pWfB9Hn6mfg136wM4-58" target="Gg7pWfB9Hn6mfg136wM4-320" edge="1">
          <mxGeometry relative="1" as="geometry" />
        </mxCell>
        <mxCell id="Gg7pWfB9Hn6mfg136wM4-58" value="extract component from the existed incident to the new" style="whiteSpace=wrap;html=1;" parent="1" vertex="1">
          <mxGeometry x="325.5" y="1800" width="120" height="60" as="geometry" />
        </mxCell>
        <mxCell id="Gg7pWfB9Hn6mfg136wM4-64" value="add response with 409" style="whiteSpace=wrap;html=1;" parent="1" vertex="1">
          <mxGeometry x="-30" y="1600" width="120" height="40" as="geometry" />
        </mxCell>
        <mxCell id="Gg7pWfB9Hn6mfg136wM4-70" value="" style="edgeStyle=orthogonalEdgeStyle;rounded=0;orthogonalLoop=1;jettySize=auto;html=1;" parent="1" source="Gg7pWfB9Hn6mfg136wM4-67" target="Gg7pWfB9Hn6mfg136wM4-69" edge="1">
          <mxGeometry relative="1" as="geometry" />
        </mxCell>
        <mxCell id="Gg7pWfB9Hn6mfg136wM4-71" value="YES" style="edgeLabel;html=1;align=center;verticalAlign=middle;resizable=0;points=[];" parent="Gg7pWfB9Hn6mfg136wM4-70" vertex="1" connectable="0">
          <mxGeometry x="0.2" y="1" relative="1" as="geometry">
            <mxPoint as="offset" />
          </mxGeometry>
        </mxCell>
        <mxCell id="Gg7pWfB9Hn6mfg136wM4-82" value="" style="edgeStyle=orthogonalEdgeStyle;rounded=0;orthogonalLoop=1;jettySize=auto;html=1;" parent="1" source="Gg7pWfB9Hn6mfg136wM4-67" target="Gg7pWfB9Hn6mfg136wM4-58" edge="1">
          <mxGeometry relative="1" as="geometry" />
        </mxCell>
        <mxCell id="Gg7pWfB9Hn6mfg136wM4-83" value="NO" style="edgeLabel;html=1;align=center;verticalAlign=middle;resizable=0;points=[];" parent="Gg7pWfB9Hn6mfg136wM4-82" vertex="1" connectable="0">
          <mxGeometry x="-0.4963" y="-3" relative="1" as="geometry">
            <mxPoint as="offset" />
          </mxGeometry>
        </mxCell>
        <mxCell id="Gg7pWfB9Hn6mfg136wM4-67" value="only 1 component in the incident?" style="rhombus;whiteSpace=wrap;html=1;" parent="1" vertex="1">
          <mxGeometry x="345" y="1665" width="80" height="80" as="geometry" />
        </mxCell>
        <mxCell id="Gg7pWfB9Hn6mfg136wM4-100" style="edgeStyle=orthogonalEdgeStyle;rounded=0;orthogonalLoop=1;jettySize=auto;html=1;exitX=0.5;exitY=1;exitDx=0;exitDy=0;entryX=0;entryY=0.5;entryDx=0;entryDy=0;" parent="1" source="Gg7pWfB9Hn6mfg136wM4-69" target="Gg7pWfB9Hn6mfg136wM4-93" edge="1">
          <mxGeometry relative="1" as="geometry" />
        </mxCell>
        <mxCell id="Gg7pWfB9Hn6mfg136wM4-69" value="increase impact" style="whiteSpace=wrap;html=1;" parent="1" vertex="1">
          <mxGeometry x="165" y="1675" width="120" height="60" as="geometry" />
        </mxCell>
        <mxCell id="Gg7pWfB9Hn6mfg136wM4-76" value="" style="edgeStyle=orthogonalEdgeStyle;rounded=0;orthogonalLoop=1;jettySize=auto;html=1;exitX=0.5;exitY=1;exitDx=0;exitDy=0;" parent="1" source="Gg7pWfB9Hn6mfg136wM4-72" target="Gg7pWfB9Hn6mfg136wM4-75" edge="1">
          <mxGeometry relative="1" as="geometry" />
        </mxCell>
        <mxCell id="Gg7pWfB9Hn6mfg136wM4-72" value="find the first incident with the same impact" style="whiteSpace=wrap;html=1;" parent="1" vertex="1">
          <mxGeometry x="760" y="1440" width="120" height="60" as="geometry" />
        </mxCell>
        <mxCell id="Gg7pWfB9Hn6mfg136wM4-77" value="" style="edgeStyle=orthogonalEdgeStyle;rounded=0;orthogonalLoop=1;jettySize=auto;html=1;" parent="1" source="Gg7pWfB9Hn6mfg136wM4-75" target="Gg7pWfB9Hn6mfg136wM4-38" edge="1">
          <mxGeometry relative="1" as="geometry" />
        </mxCell>
        <mxCell id="Gg7pWfB9Hn6mfg136wM4-78" value="YES" style="edgeLabel;html=1;align=center;verticalAlign=middle;resizable=0;points=[];" parent="Gg7pWfB9Hn6mfg136wM4-77" vertex="1" connectable="0">
          <mxGeometry x="-0.1667" y="1" relative="1" as="geometry">
            <mxPoint as="offset" />
          </mxGeometry>
        </mxCell>
        <mxCell id="Gg7pWfB9Hn6mfg136wM4-80" value="" style="edgeStyle=orthogonalEdgeStyle;rounded=0;orthogonalLoop=1;jettySize=auto;html=1;" parent="1" source="Gg7pWfB9Hn6mfg136wM4-75" target="Gg7pWfB9Hn6mfg136wM4-79" edge="1">
          <mxGeometry relative="1" as="geometry" />
        </mxCell>
        <mxCell id="Gg7pWfB9Hn6mfg136wM4-81" value="NO" style="edgeLabel;html=1;align=center;verticalAlign=middle;resizable=0;points=[];" parent="Gg7pWfB9Hn6mfg136wM4-80" vertex="1" connectable="0">
          <mxGeometry x="-0.1556" y="-2" relative="1" as="geometry">
            <mxPoint as="offset" />
          </mxGeometry>
        </mxCell>
        <mxCell id="Gg7pWfB9Hn6mfg136wM4-75" value="found an incident with the same impact" style="rhombus;whiteSpace=wrap;html=1;" parent="1" vertex="1">
          <mxGeometry x="780" y="1575" width="80" height="80" as="geometry" />
        </mxCell>
        <mxCell id="Gg7pWfB9Hn6mfg136wM4-96" style="edgeStyle=orthogonalEdgeStyle;rounded=0;orthogonalLoop=1;jettySize=auto;html=1;exitX=0.5;exitY=1;exitDx=0;exitDy=0;entryX=1;entryY=0.5;entryDx=0;entryDy=0;" parent="1" source="Gg7pWfB9Hn6mfg136wM4-79" target="Gg7pWfB9Hn6mfg136wM4-93" edge="1">
          <mxGeometry relative="1" as="geometry" />
        </mxCell>
        <mxCell id="Gg7pWfB9Hn6mfg136wM4-79" value="create the incident" style="whiteSpace=wrap;html=1;" parent="1" vertex="1">
          <mxGeometry x="920" y="1585" width="120" height="60" as="geometry" />
        </mxCell>
        <mxCell id="Gg7pWfB9Hn6mfg136wM4-86" style="edgeStyle=orthogonalEdgeStyle;rounded=0;orthogonalLoop=1;jettySize=auto;html=1;entryX=0;entryY=0.5;entryDx=0;entryDy=0;exitX=0;exitY=0.5;exitDx=0;exitDy=0;" parent="1" source="Gg7pWfB9Hn6mfg136wM4-84" target="Gg7pWfB9Hn6mfg136wM4-33" edge="1">
          <mxGeometry relative="1" as="geometry">
            <mxPoint x="180" y="2290" as="sourcePoint" />
            <Array as="points">
              <mxPoint x="120" y="2180" />
              <mxPoint x="120" y="1085" />
            </Array>
          </mxGeometry>
        </mxCell>
        <mxCell id="Gg7pWfB9Hn6mfg136wM4-87" value="YES" style="edgeLabel;html=1;align=center;verticalAlign=middle;resizable=0;points=[];" parent="Gg7pWfB9Hn6mfg136wM4-86" vertex="1" connectable="0">
          <mxGeometry x="-0.9053" relative="1" as="geometry">
            <mxPoint as="offset" />
          </mxGeometry>
        </mxCell>
        <mxCell id="Gg7pWfB9Hn6mfg136wM4-94" value="" style="edgeStyle=orthogonalEdgeStyle;rounded=0;orthogonalLoop=1;jettySize=auto;html=1;" parent="1" source="Gg7pWfB9Hn6mfg136wM4-84" target="Gg7pWfB9Hn6mfg136wM4-93" edge="1">
          <mxGeometry relative="1" as="geometry" />
        </mxCell>
        <mxCell id="Gg7pWfB9Hn6mfg136wM4-84" value="do we have more components?" style="rhombus;whiteSpace=wrap;html=1;" parent="1" vertex="1">
          <mxGeometry x="345.25" y="2140" width="80" height="80" as="geometry" />
        </mxCell>
        <mxCell id="Gg7pWfB9Hn6mfg136wM4-90" value="" style="ellipse;html=1;shape=endState;fillColor=#000000;strokeColor=#ff0000;" parent="1" vertex="1">
          <mxGeometry x="368.25" y="2360" width="35" height="30" as="geometry" />
        </mxCell>
        <mxCell id="Gg7pWfB9Hn6mfg136wM4-95" value="" style="edgeStyle=orthogonalEdgeStyle;rounded=0;orthogonalLoop=1;jettySize=auto;html=1;" parent="1" source="Gg7pWfB9Hn6mfg136wM4-93" target="Gg7pWfB9Hn6mfg136wM4-90" edge="1">
          <mxGeometry relative="1" as="geometry" />
        </mxCell>
        <mxCell id="Gg7pWfB9Hn6mfg136wM4-93" value="prepare a response" style="whiteSpace=wrap;html=1;" parent="1" vertex="1">
          <mxGeometry x="325.25" y="2260" width="120" height="60" as="geometry" />
        </mxCell>
        <mxCell id="Gg7pWfB9Hn6mfg136wM4-98" style="edgeStyle=orthogonalEdgeStyle;rounded=0;orthogonalLoop=1;jettySize=auto;html=1;exitX=0.5;exitY=1;exitDx=0;exitDy=0;" parent="1" source="Gg7pWfB9Hn6mfg136wM4-64" target="Gg7pWfB9Hn6mfg136wM4-64" edge="1">
          <mxGeometry relative="1" as="geometry" />
        </mxCell>
        <mxCell id="Gg7pWfB9Hn6mfg136wM4-99" style="edgeStyle=orthogonalEdgeStyle;rounded=0;orthogonalLoop=1;jettySize=auto;html=1;exitX=0.5;exitY=1;exitDx=0;exitDy=0;entryX=0;entryY=0.5;entryDx=0;entryDy=0;" parent="1" source="Gg7pWfB9Hn6mfg136wM4-64" target="Gg7pWfB9Hn6mfg136wM4-93" edge="1">
          <mxGeometry relative="1" as="geometry">
            <mxPoint x="270" y="2060" as="targetPoint" />
          </mxGeometry>
        </mxCell>
        <mxCell id="Gg7pWfB9Hn6mfg136wM4-101" value="Possible situations:" style="text;html=1;align=center;verticalAlign=middle;resizable=0;points=[];autosize=1;strokeColor=none;fillColor=none;" parent="1" vertex="1">
          <mxGeometry x="1605" y="200" width="130" height="30" as="geometry" />
        </mxCell>
        <mxCell id="Gg7pWfB9Hn6mfg136wM4-104" value="1. There are no open incidents -&amp;gt; create a new one" style="text;html=1;align=center;verticalAlign=middle;resizable=0;points=[];autosize=1;strokeColor=none;fillColor=none;" parent="1" vertex="1">
          <mxGeometry x="1605" y="240" width="300" height="30" as="geometry" />
        </mxCell>
        <mxCell id="Gg7pWfB9Hn6mfg136wM4-105" value="2. We have an incident with maintenance status -&amp;gt; reject creation for component" style="text;html=1;align=center;verticalAlign=middle;resizable=0;points=[];autosize=1;strokeColor=none;fillColor=none;" parent="1" vertex="1">
          <mxGeometry x="1599" y="630" width="450" height="30" as="geometry" />
        </mxCell>
        <mxCell id="Gg7pWfB9Hn6mfg136wM4-106" value="" style="group" parent="1" vertex="1" connectable="0">
          <mxGeometry x="1765" y="60" width="120" height="120" as="geometry" />
        </mxCell>
        <mxCell id="Gg7pWfB9Hn6mfg136wM4-107" style="edgeStyle=orthogonalEdgeStyle;rounded=0;orthogonalLoop=1;jettySize=auto;html=1;exitX=0.25;exitY=1;exitDx=0;exitDy=0;entryX=0.5;entryY=0;entryDx=0;entryDy=0;" parent="Gg7pWfB9Hn6mfg136wM4-106" source="Gg7pWfB9Hn6mfg136wM4-109" target="Gg7pWfB9Hn6mfg136wM4-110" edge="1">
          <mxGeometry relative="1" as="geometry" />
        </mxCell>
        <mxCell id="Gg7pWfB9Hn6mfg136wM4-108" style="edgeStyle=orthogonalEdgeStyle;rounded=0;orthogonalLoop=1;jettySize=auto;html=1;exitX=0.75;exitY=1;exitDx=0;exitDy=0;entryX=0.5;entryY=0;entryDx=0;entryDy=0;" parent="Gg7pWfB9Hn6mfg136wM4-106" source="Gg7pWfB9Hn6mfg136wM4-109" target="Gg7pWfB9Hn6mfg136wM4-111" edge="1">
          <mxGeometry relative="1" as="geometry" />
        </mxCell>
        <mxCell id="Gg7pWfB9Hn6mfg136wM4-109" value="incident&lt;div&gt;&lt;span style=&quot;background-color: initial;&quot;&gt;impact: 1&lt;/span&gt;&lt;br&gt;&lt;/div&gt;" style="rounded=0;whiteSpace=wrap;html=1;" parent="Gg7pWfB9Hn6mfg136wM4-106" vertex="1">
          <mxGeometry width="120" height="40" as="geometry" />
        </mxCell>
        <mxCell id="Gg7pWfB9Hn6mfg136wM4-110" value="comp&lt;div&gt;1&lt;/div&gt;" style="rounded=0;whiteSpace=wrap;html=1;" parent="Gg7pWfB9Hn6mfg136wM4-106" vertex="1">
          <mxGeometry y="80" width="40" height="40" as="geometry" />
        </mxCell>
        <mxCell id="Gg7pWfB9Hn6mfg136wM4-111" value="comp&lt;div&gt;3&lt;/div&gt;" style="rounded=0;whiteSpace=wrap;html=1;" parent="Gg7pWfB9Hn6mfg136wM4-106" vertex="1">
          <mxGeometry x="80" y="80" width="40" height="40" as="geometry" />
        </mxCell>
        <mxCell id="Gg7pWfB9Hn6mfg136wM4-112" value="" style="group" parent="1" vertex="1" connectable="0">
          <mxGeometry x="1925" y="40" width="400" height="160" as="geometry" />
        </mxCell>
        <mxCell id="Gg7pWfB9Hn6mfg136wM4-113" value="" style="rounded=0;whiteSpace=wrap;html=1;" parent="Gg7pWfB9Hn6mfg136wM4-112" vertex="1">
          <mxGeometry width="400" height="160" as="geometry" />
        </mxCell>
        <mxCell id="Gg7pWfB9Hn6mfg136wM4-114" value="" style="group" parent="Gg7pWfB9Hn6mfg136wM4-112" vertex="1" connectable="0">
          <mxGeometry x="240" y="20" width="120" height="120" as="geometry" />
        </mxCell>
        <mxCell id="Gg7pWfB9Hn6mfg136wM4-115" style="edgeStyle=orthogonalEdgeStyle;rounded=0;orthogonalLoop=1;jettySize=auto;html=1;exitX=0.25;exitY=1;exitDx=0;exitDy=0;entryX=0.5;entryY=0;entryDx=0;entryDy=0;" parent="Gg7pWfB9Hn6mfg136wM4-114" source="Gg7pWfB9Hn6mfg136wM4-117" target="Gg7pWfB9Hn6mfg136wM4-119" edge="1">
          <mxGeometry relative="1" as="geometry" />
        </mxCell>
        <mxCell id="Gg7pWfB9Hn6mfg136wM4-116" style="edgeStyle=orthogonalEdgeStyle;rounded=0;orthogonalLoop=1;jettySize=auto;html=1;exitX=0.75;exitY=1;exitDx=0;exitDy=0;entryX=0.5;entryY=0;entryDx=0;entryDy=0;" parent="Gg7pWfB9Hn6mfg136wM4-114" source="Gg7pWfB9Hn6mfg136wM4-117" target="Gg7pWfB9Hn6mfg136wM4-118" edge="1">
          <mxGeometry relative="1" as="geometry" />
        </mxCell>
        <mxCell id="Gg7pWfB9Hn6mfg136wM4-117" value="incident&lt;div&gt;&lt;span style=&quot;background-color: initial;&quot;&gt;impact: 2&lt;/span&gt;&lt;br&gt;&lt;/div&gt;" style="rounded=0;whiteSpace=wrap;html=1;" parent="Gg7pWfB9Hn6mfg136wM4-114" vertex="1">
          <mxGeometry width="120" height="40" as="geometry" />
        </mxCell>
        <mxCell id="Gg7pWfB9Hn6mfg136wM4-118" value="comp&lt;div&gt;4&lt;/div&gt;" style="rounded=0;whiteSpace=wrap;html=1;" parent="Gg7pWfB9Hn6mfg136wM4-114" vertex="1">
          <mxGeometry x="80" y="80" width="40" height="40" as="geometry" />
        </mxCell>
        <mxCell id="Gg7pWfB9Hn6mfg136wM4-119" value="comp&lt;div&gt;3&lt;/div&gt;" style="rounded=0;whiteSpace=wrap;html=1;" parent="Gg7pWfB9Hn6mfg136wM4-114" vertex="1">
          <mxGeometry y="80" width="40" height="40" as="geometry" />
        </mxCell>
        <mxCell id="Gg7pWfB9Hn6mfg136wM4-120" value="" style="group" parent="Gg7pWfB9Hn6mfg136wM4-112" vertex="1" connectable="0">
          <mxGeometry x="40" y="20" width="120" height="120" as="geometry" />
        </mxCell>
        <mxCell id="Gg7pWfB9Hn6mfg136wM4-121" style="edgeStyle=orthogonalEdgeStyle;rounded=0;orthogonalLoop=1;jettySize=auto;html=1;exitX=0.25;exitY=1;exitDx=0;exitDy=0;entryX=0.5;entryY=0;entryDx=0;entryDy=0;movable=1;resizable=1;rotatable=1;deletable=1;editable=1;locked=0;connectable=1;" parent="Gg7pWfB9Hn6mfg136wM4-120" source="Gg7pWfB9Hn6mfg136wM4-123" target="Gg7pWfB9Hn6mfg136wM4-124" edge="1">
          <mxGeometry relative="1" as="geometry" />
        </mxCell>
        <mxCell id="Gg7pWfB9Hn6mfg136wM4-122" style="edgeStyle=orthogonalEdgeStyle;rounded=0;orthogonalLoop=1;jettySize=auto;html=1;exitX=0.75;exitY=1;exitDx=0;exitDy=0;entryX=0.5;entryY=0;entryDx=0;entryDy=0;movable=1;resizable=1;rotatable=1;deletable=1;editable=1;locked=0;connectable=1;" parent="Gg7pWfB9Hn6mfg136wM4-120" source="Gg7pWfB9Hn6mfg136wM4-123" target="Gg7pWfB9Hn6mfg136wM4-125" edge="1">
          <mxGeometry relative="1" as="geometry" />
        </mxCell>
        <mxCell id="Gg7pWfB9Hn6mfg136wM4-123" value="incident&lt;div&gt;&lt;span style=&quot;background-color: initial;&quot;&gt;impact: 0&lt;/span&gt;&lt;br&gt;&lt;/div&gt;" style="rounded=0;whiteSpace=wrap;html=1;movable=1;resizable=1;rotatable=1;deletable=1;editable=1;locked=0;connectable=1;" parent="Gg7pWfB9Hn6mfg136wM4-120" vertex="1">
          <mxGeometry width="120" height="40" as="geometry" />
        </mxCell>
        <mxCell id="Gg7pWfB9Hn6mfg136wM4-124" value="comp&lt;div&gt;1&lt;/div&gt;" style="rounded=0;whiteSpace=wrap;html=1;movable=1;resizable=1;rotatable=1;deletable=1;editable=1;locked=0;connectable=1;" parent="Gg7pWfB9Hn6mfg136wM4-120" vertex="1">
          <mxGeometry y="80" width="40" height="40" as="geometry" />
        </mxCell>
        <mxCell id="Gg7pWfB9Hn6mfg136wM4-125" value="comp&lt;div&gt;2&lt;/div&gt;" style="rounded=0;whiteSpace=wrap;html=1;movable=1;resizable=1;rotatable=1;deletable=1;editable=1;locked=0;connectable=1;" parent="Gg7pWfB9Hn6mfg136wM4-120" vertex="1">
          <mxGeometry x="80" y="80" width="40" height="40" as="geometry" />
        </mxCell>
        <mxCell id="Gg7pWfB9Hn6mfg136wM4-126" value="" style="shape=flexArrow;endArrow=classic;html=1;rounded=0;" parent="1" edge="1">
          <mxGeometry width="50" height="50" relative="1" as="geometry">
            <mxPoint x="2010" y="330" as="sourcePoint" />
            <mxPoint x="2100" y="330" as="targetPoint" />
          </mxGeometry>
        </mxCell>
        <mxCell id="Gg7pWfB9Hn6mfg136wM4-127" value="" style="group" parent="1" vertex="1" connectable="0">
          <mxGeometry x="2131" y="280" width="120" height="120" as="geometry" />
        </mxCell>
        <mxCell id="Gg7pWfB9Hn6mfg136wM4-128" style="edgeStyle=orthogonalEdgeStyle;rounded=0;orthogonalLoop=1;jettySize=auto;html=1;exitX=0.25;exitY=1;exitDx=0;exitDy=0;entryX=0.5;entryY=0;entryDx=0;entryDy=0;" parent="Gg7pWfB9Hn6mfg136wM4-127" source="Gg7pWfB9Hn6mfg136wM4-130" target="Gg7pWfB9Hn6mfg136wM4-131" edge="1">
          <mxGeometry relative="1" as="geometry" />
        </mxCell>
        <mxCell id="Gg7pWfB9Hn6mfg136wM4-129" style="edgeStyle=orthogonalEdgeStyle;rounded=0;orthogonalLoop=1;jettySize=auto;html=1;exitX=0.75;exitY=1;exitDx=0;exitDy=0;entryX=0.5;entryY=0;entryDx=0;entryDy=0;" parent="Gg7pWfB9Hn6mfg136wM4-127" source="Gg7pWfB9Hn6mfg136wM4-130" target="Gg7pWfB9Hn6mfg136wM4-132" edge="1">
          <mxGeometry relative="1" as="geometry" />
        </mxCell>
        <mxCell id="Gg7pWfB9Hn6mfg136wM4-130" value="incident&lt;div&gt;&lt;span style=&quot;background-color: initial;&quot;&gt;impact: 1&lt;/span&gt;&lt;br&gt;&lt;/div&gt;" style="rounded=0;whiteSpace=wrap;html=1;" parent="Gg7pWfB9Hn6mfg136wM4-127" vertex="1">
          <mxGeometry width="120" height="40" as="geometry" />
        </mxCell>
        <mxCell id="Gg7pWfB9Hn6mfg136wM4-131" value="comp&lt;div&gt;1&lt;/div&gt;" style="rounded=0;whiteSpace=wrap;html=1;" parent="Gg7pWfB9Hn6mfg136wM4-127" vertex="1">
          <mxGeometry y="80" width="40" height="40" as="geometry" />
        </mxCell>
        <mxCell id="Gg7pWfB9Hn6mfg136wM4-132" value="comp&lt;div&gt;3&lt;/div&gt;" style="rounded=0;whiteSpace=wrap;html=1;" parent="Gg7pWfB9Hn6mfg136wM4-127" vertex="1">
          <mxGeometry x="80" y="80" width="40" height="40" as="geometry" />
        </mxCell>
        <mxCell id="Gg7pWfB9Hn6mfg136wM4-133" value="" style="group" parent="1" vertex="1" connectable="0">
          <mxGeometry x="1680" y="680" width="120" height="120" as="geometry" />
        </mxCell>
        <mxCell id="Gg7pWfB9Hn6mfg136wM4-134" style="edgeStyle=orthogonalEdgeStyle;rounded=0;orthogonalLoop=1;jettySize=auto;html=1;exitX=0.25;exitY=1;exitDx=0;exitDy=0;entryX=0.5;entryY=0;entryDx=0;entryDy=0;" parent="Gg7pWfB9Hn6mfg136wM4-133" source="Gg7pWfB9Hn6mfg136wM4-136" target="Gg7pWfB9Hn6mfg136wM4-137" edge="1">
          <mxGeometry relative="1" as="geometry" />
        </mxCell>
        <mxCell id="Gg7pWfB9Hn6mfg136wM4-135" style="edgeStyle=orthogonalEdgeStyle;rounded=0;orthogonalLoop=1;jettySize=auto;html=1;exitX=0.75;exitY=1;exitDx=0;exitDy=0;entryX=0.5;entryY=0;entryDx=0;entryDy=0;" parent="Gg7pWfB9Hn6mfg136wM4-133" source="Gg7pWfB9Hn6mfg136wM4-136" target="Gg7pWfB9Hn6mfg136wM4-138" edge="1">
          <mxGeometry relative="1" as="geometry" />
        </mxCell>
        <mxCell id="Gg7pWfB9Hn6mfg136wM4-136" value="incident&lt;div&gt;&lt;span style=&quot;background-color: initial;&quot;&gt;impact: 3&lt;/span&gt;&lt;br&gt;&lt;/div&gt;" style="rounded=0;whiteSpace=wrap;html=1;" parent="Gg7pWfB9Hn6mfg136wM4-133" vertex="1">
          <mxGeometry width="120" height="40" as="geometry" />
        </mxCell>
        <mxCell id="Gg7pWfB9Hn6mfg136wM4-137" value="comp&lt;div&gt;1&lt;/div&gt;" style="rounded=0;whiteSpace=wrap;html=1;" parent="Gg7pWfB9Hn6mfg136wM4-133" vertex="1">
          <mxGeometry y="80" width="40" height="40" as="geometry" />
        </mxCell>
        <mxCell id="Gg7pWfB9Hn6mfg136wM4-138" value="comp&lt;div&gt;2&lt;/div&gt;" style="rounded=0;whiteSpace=wrap;html=1;" parent="Gg7pWfB9Hn6mfg136wM4-133" vertex="1">
          <mxGeometry x="80" y="80" width="40" height="40" as="geometry" />
        </mxCell>
        <mxCell id="Gg7pWfB9Hn6mfg136wM4-153" value="" style="shape=flexArrow;endArrow=classic;html=1;rounded=0;" parent="1" edge="1">
          <mxGeometry width="50" height="50" relative="1" as="geometry">
            <mxPoint x="2005" y="739.6700000000001" as="sourcePoint" />
            <mxPoint x="2095" y="739.6700000000001" as="targetPoint" />
          </mxGeometry>
        </mxCell>
        <mxCell id="Gg7pWfB9Hn6mfg136wM4-154" value="2. We have an incident without target component -&amp;gt; add component to the existed incident" style="text;html=1;align=center;verticalAlign=middle;resizable=0;points=[];autosize=1;strokeColor=none;fillColor=none;" parent="1" vertex="1">
          <mxGeometry x="1605" y="948" width="500" height="30" as="geometry" />
        </mxCell>
        <mxCell id="Gg7pWfB9Hn6mfg136wM4-155" value="" style="group" parent="1" vertex="1" connectable="0">
          <mxGeometry x="1687" y="998" width="120" height="120" as="geometry" />
        </mxCell>
        <mxCell id="Gg7pWfB9Hn6mfg136wM4-156" style="edgeStyle=orthogonalEdgeStyle;rounded=0;orthogonalLoop=1;jettySize=auto;html=1;exitX=0.25;exitY=1;exitDx=0;exitDy=0;entryX=0.5;entryY=0;entryDx=0;entryDy=0;" parent="Gg7pWfB9Hn6mfg136wM4-155" source="Gg7pWfB9Hn6mfg136wM4-158" target="Gg7pWfB9Hn6mfg136wM4-159" edge="1">
          <mxGeometry relative="1" as="geometry" />
        </mxCell>
        <mxCell id="Gg7pWfB9Hn6mfg136wM4-157" style="edgeStyle=orthogonalEdgeStyle;rounded=0;orthogonalLoop=1;jettySize=auto;html=1;exitX=0.75;exitY=1;exitDx=0;exitDy=0;entryX=0.5;entryY=0;entryDx=0;entryDy=0;" parent="Gg7pWfB9Hn6mfg136wM4-155" source="Gg7pWfB9Hn6mfg136wM4-158" target="Gg7pWfB9Hn6mfg136wM4-160" edge="1">
          <mxGeometry relative="1" as="geometry" />
        </mxCell>
        <mxCell id="Gg7pWfB9Hn6mfg136wM4-158" value="incident&lt;div&gt;&lt;span style=&quot;background-color: initial;&quot;&gt;impact: 1&lt;/span&gt;&lt;br&gt;&lt;/div&gt;" style="rounded=0;whiteSpace=wrap;html=1;" parent="Gg7pWfB9Hn6mfg136wM4-155" vertex="1">
          <mxGeometry width="120" height="40" as="geometry" />
        </mxCell>
        <mxCell id="Gg7pWfB9Hn6mfg136wM4-159" value="comp&lt;div&gt;1&lt;/div&gt;" style="rounded=0;whiteSpace=wrap;html=1;" parent="Gg7pWfB9Hn6mfg136wM4-155" vertex="1">
          <mxGeometry y="80" width="40" height="40" as="geometry" />
        </mxCell>
        <mxCell id="Gg7pWfB9Hn6mfg136wM4-160" value="comp&lt;div&gt;2&lt;/div&gt;" style="rounded=0;whiteSpace=wrap;html=1;" parent="Gg7pWfB9Hn6mfg136wM4-155" vertex="1">
          <mxGeometry x="80" y="80" width="40" height="40" as="geometry" />
        </mxCell>
        <mxCell id="Gg7pWfB9Hn6mfg136wM4-169" value="" style="group" parent="1" vertex="1" connectable="0">
          <mxGeometry x="1966" y="998" width="180" height="150" as="geometry" />
        </mxCell>
        <mxCell id="Gg7pWfB9Hn6mfg136wM4-176" value="" style="rounded=0;whiteSpace=wrap;html=1;" parent="Gg7pWfB9Hn6mfg136wM4-169" vertex="1">
          <mxGeometry x="-141" y="-10" width="160" height="140" as="geometry" />
        </mxCell>
        <mxCell id="Gg7pWfB9Hn6mfg136wM4-170" style="edgeStyle=orthogonalEdgeStyle;rounded=0;orthogonalLoop=1;jettySize=auto;html=1;exitX=0.25;exitY=1;exitDx=0;exitDy=0;entryX=0.5;entryY=0;entryDx=0;entryDy=0;movable=1;resizable=1;rotatable=1;deletable=1;editable=1;locked=0;connectable=1;" parent="Gg7pWfB9Hn6mfg136wM4-169" source="Gg7pWfB9Hn6mfg136wM4-172" target="Gg7pWfB9Hn6mfg136wM4-173" edge="1">
          <mxGeometry relative="1" as="geometry" />
        </mxCell>
        <mxCell id="Gg7pWfB9Hn6mfg136wM4-171" style="edgeStyle=orthogonalEdgeStyle;rounded=0;orthogonalLoop=1;jettySize=auto;html=1;exitX=0.75;exitY=1;exitDx=0;exitDy=0;entryX=0.5;entryY=0;entryDx=0;entryDy=0;movable=1;resizable=1;rotatable=1;deletable=1;editable=1;locked=0;connectable=1;" parent="Gg7pWfB9Hn6mfg136wM4-169" source="Gg7pWfB9Hn6mfg136wM4-172" target="Gg7pWfB9Hn6mfg136wM4-174" edge="1">
          <mxGeometry relative="1" as="geometry" />
        </mxCell>
        <mxCell id="Gg7pWfB9Hn6mfg136wM4-172" value="incident&lt;div&gt;&lt;span style=&quot;background-color: initial;&quot;&gt;impact: 1&lt;/span&gt;&lt;br&gt;&lt;/div&gt;" style="rounded=0;whiteSpace=wrap;html=1;movable=1;resizable=1;rotatable=1;deletable=1;editable=1;locked=0;connectable=1;" parent="Gg7pWfB9Hn6mfg136wM4-169" vertex="1">
          <mxGeometry x="-121" width="120" height="40" as="geometry" />
        </mxCell>
        <mxCell id="Gg7pWfB9Hn6mfg136wM4-173" value="comp&lt;div&gt;3&lt;/div&gt;" style="rounded=0;whiteSpace=wrap;html=1;movable=1;resizable=1;rotatable=1;deletable=1;editable=1;locked=0;connectable=1;" parent="Gg7pWfB9Hn6mfg136wM4-169" vertex="1">
          <mxGeometry x="-121" y="80" width="40" height="40" as="geometry" />
        </mxCell>
        <mxCell id="Gg7pWfB9Hn6mfg136wM4-174" value="comp&lt;div&gt;4&lt;/div&gt;" style="rounded=0;whiteSpace=wrap;html=1;movable=1;resizable=1;rotatable=1;deletable=1;editable=1;locked=0;connectable=1;" parent="Gg7pWfB9Hn6mfg136wM4-169" vertex="1">
          <mxGeometry x="-41" y="80" width="40" height="40" as="geometry" />
        </mxCell>
        <mxCell id="Gg7pWfB9Hn6mfg136wM4-175" value="" style="shape=flexArrow;endArrow=classic;html=1;rounded=0;" parent="Gg7pWfB9Hn6mfg136wM4-169" edge="1">
          <mxGeometry width="50" height="50" relative="1" as="geometry">
            <mxPoint x="49" y="59.67000000000007" as="sourcePoint" />
            <mxPoint x="139" y="59.67000000000007" as="targetPoint" />
          </mxGeometry>
        </mxCell>
        <mxCell id="Gg7pWfB9Hn6mfg136wM4-177" value="" style="rounded=0;whiteSpace=wrap;html=1;" parent="1" vertex="1">
          <mxGeometry x="2125" y="988" width="240" height="140" as="geometry" />
        </mxCell>
        <mxCell id="Gg7pWfB9Hn6mfg136wM4-178" style="edgeStyle=orthogonalEdgeStyle;rounded=0;orthogonalLoop=1;jettySize=auto;html=1;exitX=0.25;exitY=1;exitDx=0;exitDy=0;entryX=0.5;entryY=0;entryDx=0;entryDy=0;movable=1;resizable=1;rotatable=1;deletable=1;editable=1;locked=0;connectable=1;" parent="1" source="Gg7pWfB9Hn6mfg136wM4-180" target="Gg7pWfB9Hn6mfg136wM4-181" edge="1">
          <mxGeometry relative="1" as="geometry" />
        </mxCell>
        <mxCell id="Gg7pWfB9Hn6mfg136wM4-179" style="edgeStyle=orthogonalEdgeStyle;rounded=0;orthogonalLoop=1;jettySize=auto;html=1;exitX=0.75;exitY=1;exitDx=0;exitDy=0;entryX=0.5;entryY=0;entryDx=0;entryDy=0;movable=1;resizable=1;rotatable=1;deletable=1;editable=1;locked=0;connectable=1;" parent="1" source="Gg7pWfB9Hn6mfg136wM4-180" target="Gg7pWfB9Hn6mfg136wM4-182" edge="1">
          <mxGeometry relative="1" as="geometry" />
        </mxCell>
        <mxCell id="Gg7pWfB9Hn6mfg136wM4-185" style="edgeStyle=orthogonalEdgeStyle;rounded=0;orthogonalLoop=1;jettySize=auto;html=1;exitX=1;exitY=0.5;exitDx=0;exitDy=0;entryX=0.5;entryY=0;entryDx=0;entryDy=0;" parent="1" source="Gg7pWfB9Hn6mfg136wM4-180" target="Gg7pWfB9Hn6mfg136wM4-183" edge="1">
          <mxGeometry relative="1" as="geometry" />
        </mxCell>
        <mxCell id="Gg7pWfB9Hn6mfg136wM4-186" style="edgeStyle=orthogonalEdgeStyle;rounded=0;orthogonalLoop=1;jettySize=auto;html=1;exitX=1;exitY=0.5;exitDx=0;exitDy=0;entryX=0.5;entryY=0;entryDx=0;entryDy=0;" parent="1" source="Gg7pWfB9Hn6mfg136wM4-180" target="Gg7pWfB9Hn6mfg136wM4-184" edge="1">
          <mxGeometry relative="1" as="geometry" />
        </mxCell>
        <mxCell id="Gg7pWfB9Hn6mfg136wM4-180" value="incident&lt;div&gt;&lt;span style=&quot;background-color: initial;&quot;&gt;impact: 1&lt;/span&gt;&lt;br&gt;&lt;/div&gt;" style="rounded=0;whiteSpace=wrap;html=1;movable=1;resizable=1;rotatable=1;deletable=1;editable=1;locked=0;connectable=1;" parent="1" vertex="1">
          <mxGeometry x="2145" y="998" width="120" height="40" as="geometry" />
        </mxCell>
        <mxCell id="Gg7pWfB9Hn6mfg136wM4-181" value="comp&lt;div&gt;3&lt;/div&gt;" style="rounded=0;whiteSpace=wrap;html=1;movable=1;resizable=1;rotatable=1;deletable=1;editable=1;locked=0;connectable=1;" parent="1" vertex="1">
          <mxGeometry x="2145" y="1078" width="40" height="40" as="geometry" />
        </mxCell>
        <mxCell id="Gg7pWfB9Hn6mfg136wM4-182" value="comp&lt;div&gt;4&lt;/div&gt;" style="rounded=0;whiteSpace=wrap;html=1;movable=1;resizable=1;rotatable=1;deletable=1;editable=1;locked=0;connectable=1;" parent="1" vertex="1">
          <mxGeometry x="2225" y="1078" width="40" height="40" as="geometry" />
        </mxCell>
        <mxCell id="Gg7pWfB9Hn6mfg136wM4-183" value="comp&lt;div&gt;1&lt;/div&gt;" style="rounded=0;whiteSpace=wrap;html=1;movable=1;resizable=1;rotatable=1;deletable=1;editable=1;locked=0;connectable=1;" parent="1" vertex="1">
          <mxGeometry x="2275" y="1078" width="40" height="40" as="geometry" />
        </mxCell>
        <mxCell id="Gg7pWfB9Hn6mfg136wM4-184" value="comp&lt;div&gt;2&lt;/div&gt;" style="rounded=0;whiteSpace=wrap;html=1;movable=1;resizable=1;rotatable=1;deletable=1;editable=1;locked=0;connectable=1;" parent="1" vertex="1">
          <mxGeometry x="2315" y="1078" width="40" height="40" as="geometry" />
        </mxCell>
        <mxCell id="Gg7pWfB9Hn6mfg136wM4-141" value="" style="group" parent="1" vertex="1" connectable="0">
          <mxGeometry x="2159" y="680" width="120" height="120" as="geometry" />
        </mxCell>
        <mxCell id="Gg7pWfB9Hn6mfg136wM4-142" style="edgeStyle=orthogonalEdgeStyle;rounded=0;orthogonalLoop=1;jettySize=auto;html=1;exitX=0.25;exitY=1;exitDx=0;exitDy=0;entryX=0.5;entryY=0;entryDx=0;entryDy=0;" parent="Gg7pWfB9Hn6mfg136wM4-141" source="Gg7pWfB9Hn6mfg136wM4-144" target="Gg7pWfB9Hn6mfg136wM4-146" edge="1">
          <mxGeometry relative="1" as="geometry" />
        </mxCell>
        <mxCell id="Gg7pWfB9Hn6mfg136wM4-143" style="edgeStyle=orthogonalEdgeStyle;rounded=0;orthogonalLoop=1;jettySize=auto;html=1;exitX=0.75;exitY=1;exitDx=0;exitDy=0;entryX=0.5;entryY=0;entryDx=0;entryDy=0;" parent="Gg7pWfB9Hn6mfg136wM4-141" source="Gg7pWfB9Hn6mfg136wM4-144" target="Gg7pWfB9Hn6mfg136wM4-145" edge="1">
          <mxGeometry relative="1" as="geometry" />
        </mxCell>
        <mxCell id="Gg7pWfB9Hn6mfg136wM4-144" value="incident&lt;div&gt;&lt;span style=&quot;background-color: initial;&quot;&gt;impact: 0&lt;/span&gt;&lt;br&gt;&lt;/div&gt;" style="rounded=0;whiteSpace=wrap;html=1;" parent="Gg7pWfB9Hn6mfg136wM4-141" vertex="1">
          <mxGeometry width="120" height="40" as="geometry" />
        </mxCell>
        <mxCell id="Gg7pWfB9Hn6mfg136wM4-145" value="comp&lt;div&gt;2&lt;/div&gt;" style="rounded=0;whiteSpace=wrap;html=1;" parent="Gg7pWfB9Hn6mfg136wM4-141" vertex="1">
          <mxGeometry x="80" y="80" width="40" height="40" as="geometry" />
        </mxCell>
        <mxCell id="Gg7pWfB9Hn6mfg136wM4-146" value="comp&lt;div&gt;1&lt;/div&gt;" style="rounded=0;whiteSpace=wrap;html=1;" parent="Gg7pWfB9Hn6mfg136wM4-141" vertex="1">
          <mxGeometry y="80" width="40" height="40" as="geometry" />
        </mxCell>
        <mxCell id="Gg7pWfB9Hn6mfg136wM4-147" value="" style="group" parent="1" vertex="1" connectable="0">
          <mxGeometry x="1840" y="680" width="140" height="130" as="geometry" />
        </mxCell>
        <mxCell id="Gg7pWfB9Hn6mfg136wM4-187" value="" style="rounded=0;whiteSpace=wrap;html=1;" parent="Gg7pWfB9Hn6mfg136wM4-147" vertex="1">
          <mxGeometry x="-10" y="-10" width="140" height="140" as="geometry" />
        </mxCell>
        <mxCell id="Gg7pWfB9Hn6mfg136wM4-148" style="edgeStyle=orthogonalEdgeStyle;rounded=0;orthogonalLoop=1;jettySize=auto;html=1;exitX=0.25;exitY=1;exitDx=0;exitDy=0;entryX=0.5;entryY=0;entryDx=0;entryDy=0;movable=1;resizable=1;rotatable=1;deletable=1;editable=1;locked=0;connectable=1;" parent="Gg7pWfB9Hn6mfg136wM4-147" source="Gg7pWfB9Hn6mfg136wM4-150" target="Gg7pWfB9Hn6mfg136wM4-151" edge="1">
          <mxGeometry relative="1" as="geometry" />
        </mxCell>
        <mxCell id="Gg7pWfB9Hn6mfg136wM4-149" style="edgeStyle=orthogonalEdgeStyle;rounded=0;orthogonalLoop=1;jettySize=auto;html=1;exitX=0.75;exitY=1;exitDx=0;exitDy=0;entryX=0.5;entryY=0;entryDx=0;entryDy=0;movable=1;resizable=1;rotatable=1;deletable=1;editable=1;locked=0;connectable=1;" parent="Gg7pWfB9Hn6mfg136wM4-147" source="Gg7pWfB9Hn6mfg136wM4-150" target="Gg7pWfB9Hn6mfg136wM4-152" edge="1">
          <mxGeometry relative="1" as="geometry" />
        </mxCell>
        <mxCell id="Gg7pWfB9Hn6mfg136wM4-150" value="incident&lt;div&gt;&lt;span style=&quot;background-color: initial;&quot;&gt;impact: 0&lt;/span&gt;&lt;br&gt;&lt;/div&gt;" style="rounded=0;whiteSpace=wrap;html=1;movable=1;resizable=1;rotatable=1;deletable=1;editable=1;locked=0;connectable=1;" parent="Gg7pWfB9Hn6mfg136wM4-147" vertex="1">
          <mxGeometry width="120" height="40" as="geometry" />
        </mxCell>
        <mxCell id="Gg7pWfB9Hn6mfg136wM4-151" value="comp&lt;div&gt;1&lt;/div&gt;" style="rounded=0;whiteSpace=wrap;html=1;movable=1;resizable=1;rotatable=1;deletable=1;editable=1;locked=0;connectable=1;" parent="Gg7pWfB9Hn6mfg136wM4-147" vertex="1">
          <mxGeometry y="80" width="40" height="40" as="geometry" />
        </mxCell>
        <mxCell id="Gg7pWfB9Hn6mfg136wM4-152" value="comp&lt;div&gt;2&lt;/div&gt;" style="rounded=0;whiteSpace=wrap;html=1;movable=1;resizable=1;rotatable=1;deletable=1;editable=1;locked=0;connectable=1;" parent="Gg7pWfB9Hn6mfg136wM4-147" vertex="1">
          <mxGeometry x="80" y="80" width="40" height="40" as="geometry" />
        </mxCell>
        <mxCell id="Gg7pWfB9Hn6mfg136wM4-236" value="" style="group" parent="1" vertex="1" connectable="0">
          <mxGeometry x="1685" y="1198" width="120" height="120" as="geometry" />
        </mxCell>
        <mxCell id="Gg7pWfB9Hn6mfg136wM4-237" style="edgeStyle=orthogonalEdgeStyle;rounded=0;orthogonalLoop=1;jettySize=auto;html=1;exitX=0.25;exitY=1;exitDx=0;exitDy=0;entryX=0.5;entryY=0;entryDx=0;entryDy=0;" parent="Gg7pWfB9Hn6mfg136wM4-236" source="Gg7pWfB9Hn6mfg136wM4-239" target="Gg7pWfB9Hn6mfg136wM4-240" edge="1">
          <mxGeometry relative="1" as="geometry" />
        </mxCell>
        <mxCell id="Gg7pWfB9Hn6mfg136wM4-238" style="edgeStyle=orthogonalEdgeStyle;rounded=0;orthogonalLoop=1;jettySize=auto;html=1;exitX=0.75;exitY=1;exitDx=0;exitDy=0;entryX=0.5;entryY=0;entryDx=0;entryDy=0;" parent="Gg7pWfB9Hn6mfg136wM4-236" source="Gg7pWfB9Hn6mfg136wM4-239" target="Gg7pWfB9Hn6mfg136wM4-241" edge="1">
          <mxGeometry relative="1" as="geometry" />
        </mxCell>
        <mxCell id="Gg7pWfB9Hn6mfg136wM4-239" value="incident&lt;div&gt;&lt;span style=&quot;background-color: initial;&quot;&gt;impact: 1&lt;/span&gt;&lt;br&gt;&lt;/div&gt;" style="rounded=0;whiteSpace=wrap;html=1;" parent="Gg7pWfB9Hn6mfg136wM4-236" vertex="1">
          <mxGeometry width="120" height="40" as="geometry" />
        </mxCell>
        <mxCell id="Gg7pWfB9Hn6mfg136wM4-240" value="comp&lt;div&gt;1&lt;/div&gt;" style="rounded=0;whiteSpace=wrap;html=1;" parent="Gg7pWfB9Hn6mfg136wM4-236" vertex="1">
          <mxGeometry y="80" width="40" height="40" as="geometry" />
        </mxCell>
        <mxCell id="Gg7pWfB9Hn6mfg136wM4-241" value="comp&lt;div&gt;2&lt;/div&gt;" style="rounded=0;whiteSpace=wrap;html=1;" parent="Gg7pWfB9Hn6mfg136wM4-236" vertex="1">
          <mxGeometry x="80" y="80" width="40" height="40" as="geometry" />
        </mxCell>
        <mxCell id="Gg7pWfB9Hn6mfg136wM4-242" value="" style="group" parent="1" vertex="1" connectable="0">
          <mxGeometry x="1964" y="1198" width="180" height="150" as="geometry" />
        </mxCell>
        <mxCell id="Gg7pWfB9Hn6mfg136wM4-243" value="" style="rounded=0;whiteSpace=wrap;html=1;" parent="Gg7pWfB9Hn6mfg136wM4-242" vertex="1">
          <mxGeometry x="-141" y="-10" width="160" height="140" as="geometry" />
        </mxCell>
        <mxCell id="Gg7pWfB9Hn6mfg136wM4-244" style="edgeStyle=orthogonalEdgeStyle;rounded=0;orthogonalLoop=1;jettySize=auto;html=1;exitX=0.25;exitY=1;exitDx=0;exitDy=0;entryX=0.5;entryY=0;entryDx=0;entryDy=0;movable=1;resizable=1;rotatable=1;deletable=1;editable=1;locked=0;connectable=1;" parent="Gg7pWfB9Hn6mfg136wM4-242" source="Gg7pWfB9Hn6mfg136wM4-246" target="Gg7pWfB9Hn6mfg136wM4-247" edge="1">
          <mxGeometry relative="1" as="geometry" />
        </mxCell>
        <mxCell id="Gg7pWfB9Hn6mfg136wM4-245" style="edgeStyle=orthogonalEdgeStyle;rounded=0;orthogonalLoop=1;jettySize=auto;html=1;exitX=0.75;exitY=1;exitDx=0;exitDy=0;entryX=0.5;entryY=0;entryDx=0;entryDy=0;movable=1;resizable=1;rotatable=1;deletable=1;editable=1;locked=0;connectable=1;" parent="Gg7pWfB9Hn6mfg136wM4-242" source="Gg7pWfB9Hn6mfg136wM4-246" target="Gg7pWfB9Hn6mfg136wM4-248" edge="1">
          <mxGeometry relative="1" as="geometry" />
        </mxCell>
        <mxCell id="Gg7pWfB9Hn6mfg136wM4-246" value="incident&lt;div&gt;&lt;span style=&quot;background-color: initial;&quot;&gt;impact: 3&lt;/span&gt;&lt;br&gt;&lt;/div&gt;" style="rounded=0;whiteSpace=wrap;html=1;movable=1;resizable=1;rotatable=1;deletable=1;editable=1;locked=0;connectable=1;" parent="Gg7pWfB9Hn6mfg136wM4-242" vertex="1">
          <mxGeometry x="-121" width="120" height="40" as="geometry" />
        </mxCell>
        <mxCell id="Gg7pWfB9Hn6mfg136wM4-247" value="comp&lt;div&gt;1&lt;/div&gt;" style="rounded=0;whiteSpace=wrap;html=1;movable=1;resizable=1;rotatable=1;deletable=1;editable=1;locked=0;connectable=1;" parent="Gg7pWfB9Hn6mfg136wM4-242" vertex="1">
          <mxGeometry x="-121" y="80" width="40" height="40" as="geometry" />
        </mxCell>
        <mxCell id="Gg7pWfB9Hn6mfg136wM4-248" value="comp&lt;div&gt;4&lt;/div&gt;" style="rounded=0;whiteSpace=wrap;html=1;movable=1;resizable=1;rotatable=1;deletable=1;editable=1;locked=0;connectable=1;" parent="Gg7pWfB9Hn6mfg136wM4-242" vertex="1">
          <mxGeometry x="-41" y="80" width="40" height="40" as="geometry" />
        </mxCell>
        <mxCell id="Gg7pWfB9Hn6mfg136wM4-249" value="" style="shape=flexArrow;endArrow=classic;html=1;rounded=0;" parent="Gg7pWfB9Hn6mfg136wM4-242" edge="1">
          <mxGeometry width="50" height="50" relative="1" as="geometry">
            <mxPoint x="49" y="59.67000000000007" as="sourcePoint" />
            <mxPoint x="139" y="59.67000000000007" as="targetPoint" />
          </mxGeometry>
        </mxCell>
        <mxCell id="Gg7pWfB9Hn6mfg136wM4-260" value="2. We have an incident with target component and founded impact more or eq -&amp;gt; do nothing" style="text;html=1;align=center;verticalAlign=middle;resizable=0;points=[];autosize=1;strokeColor=none;fillColor=none;" parent="1" vertex="1">
          <mxGeometry x="1600" y="1148" width="510" height="30" as="geometry" />
        </mxCell>
        <mxCell id="Gg7pWfB9Hn6mfg136wM4-268" value="" style="rounded=0;whiteSpace=wrap;html=1;" parent="1" vertex="1">
          <mxGeometry x="2263" y="1188" width="160" height="140" as="geometry" />
        </mxCell>
        <mxCell id="Gg7pWfB9Hn6mfg136wM4-269" style="edgeStyle=orthogonalEdgeStyle;rounded=0;orthogonalLoop=1;jettySize=auto;html=1;exitX=0.25;exitY=1;exitDx=0;exitDy=0;entryX=0.5;entryY=0;entryDx=0;entryDy=0;movable=1;resizable=1;rotatable=1;deletable=1;editable=1;locked=0;connectable=1;" parent="1" source="Gg7pWfB9Hn6mfg136wM4-271" target="Gg7pWfB9Hn6mfg136wM4-272" edge="1">
          <mxGeometry relative="1" as="geometry" />
        </mxCell>
        <mxCell id="Gg7pWfB9Hn6mfg136wM4-270" style="edgeStyle=orthogonalEdgeStyle;rounded=0;orthogonalLoop=1;jettySize=auto;html=1;exitX=0.75;exitY=1;exitDx=0;exitDy=0;entryX=0.5;entryY=0;entryDx=0;entryDy=0;movable=1;resizable=1;rotatable=1;deletable=1;editable=1;locked=0;connectable=1;" parent="1" source="Gg7pWfB9Hn6mfg136wM4-271" target="Gg7pWfB9Hn6mfg136wM4-273" edge="1">
          <mxGeometry relative="1" as="geometry" />
        </mxCell>
        <mxCell id="Gg7pWfB9Hn6mfg136wM4-271" value="incident&lt;div&gt;&lt;span style=&quot;background-color: initial;&quot;&gt;impact: 3&lt;/span&gt;&lt;br&gt;&lt;/div&gt;" style="rounded=0;whiteSpace=wrap;html=1;movable=1;resizable=1;rotatable=1;deletable=1;editable=1;locked=0;connectable=1;" parent="1" vertex="1">
          <mxGeometry x="2283" y="1198" width="120" height="40" as="geometry" />
        </mxCell>
        <mxCell id="Gg7pWfB9Hn6mfg136wM4-272" value="comp&lt;div&gt;1&lt;/div&gt;" style="rounded=0;whiteSpace=wrap;html=1;movable=1;resizable=1;rotatable=1;deletable=1;editable=1;locked=0;connectable=1;" parent="1" vertex="1">
          <mxGeometry x="2283" y="1278" width="40" height="40" as="geometry" />
        </mxCell>
        <mxCell id="Gg7pWfB9Hn6mfg136wM4-273" value="comp&lt;div&gt;4&lt;/div&gt;" style="rounded=0;whiteSpace=wrap;html=1;movable=1;resizable=1;rotatable=1;deletable=1;editable=1;locked=0;connectable=1;" parent="1" vertex="1">
          <mxGeometry x="2363" y="1278" width="40" height="40" as="geometry" />
        </mxCell>
        <mxCell id="Gg7pWfB9Hn6mfg136wM4-274" style="edgeStyle=orthogonalEdgeStyle;rounded=0;orthogonalLoop=1;jettySize=auto;html=1;exitX=0.5;exitY=1;exitDx=0;exitDy=0;entryX=0.5;entryY=0;entryDx=0;entryDy=0;" parent="1" source="Gg7pWfB9Hn6mfg136wM4-265" target="Gg7pWfB9Hn6mfg136wM4-267" edge="1">
          <mxGeometry relative="1" as="geometry" />
        </mxCell>
        <mxCell id="Gg7pWfB9Hn6mfg136wM4-265" value="incident&lt;div&gt;&lt;span style=&quot;background-color: initial;&quot;&gt;impact: 1&lt;/span&gt;&lt;br&gt;&lt;/div&gt;" style="rounded=0;whiteSpace=wrap;html=1;" parent="1" vertex="1">
          <mxGeometry x="2125" y="1198" width="120" height="40" as="geometry" />
        </mxCell>
        <mxCell id="Gg7pWfB9Hn6mfg136wM4-267" value="comp&lt;div&gt;2&lt;/div&gt;" style="rounded=0;whiteSpace=wrap;html=1;" parent="1" vertex="1">
          <mxGeometry x="2165" y="1278" width="40" height="40" as="geometry" />
        </mxCell>
        <mxCell id="Gg7pWfB9Hn6mfg136wM4-275" value="" style="rounded=0;whiteSpace=wrap;html=1;" parent="1" vertex="1">
          <mxGeometry x="1830" y="270" width="140" height="140" as="geometry" />
        </mxCell>
        <mxCell id="Gg7pWfB9Hn6mfg136wM4-276" value="" style="group" parent="1" vertex="1" connectable="0">
          <mxGeometry x="1680" y="480" width="120" height="120" as="geometry" />
        </mxCell>
        <mxCell id="Gg7pWfB9Hn6mfg136wM4-277" style="edgeStyle=orthogonalEdgeStyle;rounded=0;orthogonalLoop=1;jettySize=auto;html=1;exitX=0.25;exitY=1;exitDx=0;exitDy=0;entryX=0.5;entryY=0;entryDx=0;entryDy=0;" parent="Gg7pWfB9Hn6mfg136wM4-276" source="Gg7pWfB9Hn6mfg136wM4-279" target="Gg7pWfB9Hn6mfg136wM4-280" edge="1">
          <mxGeometry relative="1" as="geometry" />
        </mxCell>
        <mxCell id="Gg7pWfB9Hn6mfg136wM4-278" style="edgeStyle=orthogonalEdgeStyle;rounded=0;orthogonalLoop=1;jettySize=auto;html=1;exitX=0.75;exitY=1;exitDx=0;exitDy=0;entryX=0.5;entryY=0;entryDx=0;entryDy=0;" parent="Gg7pWfB9Hn6mfg136wM4-276" source="Gg7pWfB9Hn6mfg136wM4-279" target="Gg7pWfB9Hn6mfg136wM4-281" edge="1">
          <mxGeometry relative="1" as="geometry" />
        </mxCell>
        <mxCell id="Gg7pWfB9Hn6mfg136wM4-279" value="incident&lt;div&gt;&lt;span style=&quot;background-color: initial;&quot;&gt;impact: 1&lt;/span&gt;&lt;br&gt;&lt;/div&gt;" style="rounded=0;whiteSpace=wrap;html=1;" parent="Gg7pWfB9Hn6mfg136wM4-276" vertex="1">
          <mxGeometry width="120" height="40" as="geometry" />
        </mxCell>
        <mxCell id="Gg7pWfB9Hn6mfg136wM4-280" value="comp&lt;div&gt;1&lt;/div&gt;" style="rounded=0;whiteSpace=wrap;html=1;" parent="Gg7pWfB9Hn6mfg136wM4-276" vertex="1">
          <mxGeometry y="80" width="40" height="40" as="geometry" />
        </mxCell>
        <mxCell id="Gg7pWfB9Hn6mfg136wM4-281" value="comp&lt;div&gt;3&lt;/div&gt;" style="rounded=0;whiteSpace=wrap;html=1;" parent="Gg7pWfB9Hn6mfg136wM4-276" vertex="1">
          <mxGeometry x="80" y="80" width="40" height="40" as="geometry" />
        </mxCell>
        <mxCell id="Gg7pWfB9Hn6mfg136wM4-282" value="" style="shape=flexArrow;endArrow=classic;html=1;rounded=0;" parent="1" edge="1">
          <mxGeometry width="50" height="50" relative="1" as="geometry">
            <mxPoint x="2005" y="530" as="sourcePoint" />
            <mxPoint x="2095" y="530" as="targetPoint" />
          </mxGeometry>
        </mxCell>
        <mxCell id="Gg7pWfB9Hn6mfg136wM4-283" value="" style="group" parent="1" vertex="1" connectable="0">
          <mxGeometry x="2126" y="480" width="120" height="120" as="geometry" />
        </mxCell>
        <mxCell id="Gg7pWfB9Hn6mfg136wM4-284" style="edgeStyle=orthogonalEdgeStyle;rounded=0;orthogonalLoop=1;jettySize=auto;html=1;exitX=0.25;exitY=1;exitDx=0;exitDy=0;entryX=0.5;entryY=0;entryDx=0;entryDy=0;" parent="Gg7pWfB9Hn6mfg136wM4-283" source="Gg7pWfB9Hn6mfg136wM4-286" target="Gg7pWfB9Hn6mfg136wM4-287" edge="1">
          <mxGeometry relative="1" as="geometry" />
        </mxCell>
        <mxCell id="Gg7pWfB9Hn6mfg136wM4-285" style="edgeStyle=orthogonalEdgeStyle;rounded=0;orthogonalLoop=1;jettySize=auto;html=1;exitX=0.75;exitY=1;exitDx=0;exitDy=0;entryX=0.5;entryY=0;entryDx=0;entryDy=0;" parent="Gg7pWfB9Hn6mfg136wM4-283" source="Gg7pWfB9Hn6mfg136wM4-286" target="Gg7pWfB9Hn6mfg136wM4-288" edge="1">
          <mxGeometry relative="1" as="geometry" />
        </mxCell>
        <mxCell id="Gg7pWfB9Hn6mfg136wM4-286" value="incident&lt;div&gt;&lt;span style=&quot;background-color: initial;&quot;&gt;impact: 1&lt;/span&gt;&lt;br&gt;&lt;/div&gt;" style="rounded=0;whiteSpace=wrap;html=1;" parent="Gg7pWfB9Hn6mfg136wM4-283" vertex="1">
          <mxGeometry width="120" height="40" as="geometry" />
        </mxCell>
        <mxCell id="Gg7pWfB9Hn6mfg136wM4-287" value="comp&lt;div&gt;1&lt;/div&gt;" style="rounded=0;whiteSpace=wrap;html=1;" parent="Gg7pWfB9Hn6mfg136wM4-283" vertex="1">
          <mxGeometry y="80" width="40" height="40" as="geometry" />
        </mxCell>
        <mxCell id="Gg7pWfB9Hn6mfg136wM4-288" value="comp&lt;div&gt;3&lt;/div&gt;" style="rounded=0;whiteSpace=wrap;html=1;" parent="Gg7pWfB9Hn6mfg136wM4-283" vertex="1">
          <mxGeometry x="80" y="80" width="40" height="40" as="geometry" />
        </mxCell>
        <mxCell id="Gg7pWfB9Hn6mfg136wM4-289" value="" style="group" parent="1" vertex="1" connectable="0">
          <mxGeometry x="1840" y="480" width="120" height="120" as="geometry" />
        </mxCell>
        <mxCell id="Gg7pWfB9Hn6mfg136wM4-290" style="edgeStyle=orthogonalEdgeStyle;rounded=0;orthogonalLoop=1;jettySize=auto;html=1;exitX=0.25;exitY=1;exitDx=0;exitDy=0;entryX=0.5;entryY=0;entryDx=0;entryDy=0;" parent="Gg7pWfB9Hn6mfg136wM4-289" source="Gg7pWfB9Hn6mfg136wM4-292" target="Gg7pWfB9Hn6mfg136wM4-293" edge="1">
          <mxGeometry relative="1" as="geometry" />
        </mxCell>
        <mxCell id="Gg7pWfB9Hn6mfg136wM4-291" style="edgeStyle=orthogonalEdgeStyle;rounded=0;orthogonalLoop=1;jettySize=auto;html=1;exitX=0.75;exitY=1;exitDx=0;exitDy=0;entryX=0.5;entryY=0;entryDx=0;entryDy=0;" parent="Gg7pWfB9Hn6mfg136wM4-289" source="Gg7pWfB9Hn6mfg136wM4-292" target="Gg7pWfB9Hn6mfg136wM4-294" edge="1">
          <mxGeometry relative="1" as="geometry" />
        </mxCell>
        <mxCell id="Gg7pWfB9Hn6mfg136wM4-292" value="incident&lt;div&gt;&lt;span style=&quot;background-color: initial;&quot;&gt;impact: 1&lt;/span&gt;&lt;br&gt;&lt;/div&gt;" style="rounded=0;whiteSpace=wrap;html=1;" parent="Gg7pWfB9Hn6mfg136wM4-289" vertex="1">
          <mxGeometry width="120" height="40" as="geometry" />
        </mxCell>
        <mxCell id="Gg7pWfB9Hn6mfg136wM4-293" value="comp&lt;div&gt;1&lt;/div&gt;" style="rounded=0;whiteSpace=wrap;html=1;" parent="Gg7pWfB9Hn6mfg136wM4-289" vertex="1">
          <mxGeometry y="80" width="40" height="40" as="geometry" />
        </mxCell>
        <mxCell id="Gg7pWfB9Hn6mfg136wM4-294" value="comp&lt;div&gt;3&lt;/div&gt;" style="rounded=0;whiteSpace=wrap;html=1;" parent="Gg7pWfB9Hn6mfg136wM4-289" vertex="1">
          <mxGeometry x="80" y="80" width="40" height="40" as="geometry" />
        </mxCell>
        <mxCell id="Gg7pWfB9Hn6mfg136wM4-295" value="1. There is an incident with target component and the same impact -&amp;gt; reject creation" style="text;html=1;align=center;verticalAlign=middle;resizable=0;points=[];autosize=1;strokeColor=none;fillColor=none;" parent="1" vertex="1">
          <mxGeometry x="1620" y="450" width="470" height="30" as="geometry" />
        </mxCell>
        <mxCell id="Gg7pWfB9Hn6mfg136wM4-296" value="" style="group" parent="1" vertex="1" connectable="0">
          <mxGeometry x="1685" y="1380" width="120" height="120" as="geometry" />
        </mxCell>
        <mxCell id="Gg7pWfB9Hn6mfg136wM4-297" style="edgeStyle=orthogonalEdgeStyle;rounded=0;orthogonalLoop=1;jettySize=auto;html=1;exitX=0.25;exitY=1;exitDx=0;exitDy=0;entryX=0.5;entryY=0;entryDx=0;entryDy=0;" parent="Gg7pWfB9Hn6mfg136wM4-296" source="Gg7pWfB9Hn6mfg136wM4-299" target="Gg7pWfB9Hn6mfg136wM4-300" edge="1">
          <mxGeometry relative="1" as="geometry" />
        </mxCell>
        <mxCell id="Gg7pWfB9Hn6mfg136wM4-298" style="edgeStyle=orthogonalEdgeStyle;rounded=0;orthogonalLoop=1;jettySize=auto;html=1;exitX=0.75;exitY=1;exitDx=0;exitDy=0;entryX=0.5;entryY=0;entryDx=0;entryDy=0;" parent="Gg7pWfB9Hn6mfg136wM4-296" source="Gg7pWfB9Hn6mfg136wM4-299" target="Gg7pWfB9Hn6mfg136wM4-301" edge="1">
          <mxGeometry relative="1" as="geometry" />
        </mxCell>
        <mxCell id="Gg7pWfB9Hn6mfg136wM4-299" value="incident&lt;div&gt;&lt;span style=&quot;background-color: initial;&quot;&gt;impact: 3&lt;/span&gt;&lt;br&gt;&lt;/div&gt;" style="rounded=0;whiteSpace=wrap;html=1;" parent="Gg7pWfB9Hn6mfg136wM4-296" vertex="1">
          <mxGeometry width="120" height="40" as="geometry" />
        </mxCell>
        <mxCell id="Gg7pWfB9Hn6mfg136wM4-300" value="comp&lt;div&gt;1&lt;/div&gt;" style="rounded=0;whiteSpace=wrap;html=1;" parent="Gg7pWfB9Hn6mfg136wM4-296" vertex="1">
          <mxGeometry y="80" width="40" height="40" as="geometry" />
        </mxCell>
        <mxCell id="Gg7pWfB9Hn6mfg136wM4-301" value="comp&lt;div&gt;2&lt;/div&gt;" style="rounded=0;whiteSpace=wrap;html=1;" parent="Gg7pWfB9Hn6mfg136wM4-296" vertex="1">
          <mxGeometry x="80" y="80" width="40" height="40" as="geometry" />
        </mxCell>
        <mxCell id="Gg7pWfB9Hn6mfg136wM4-302" value="" style="group" parent="1" vertex="1" connectable="0">
          <mxGeometry x="1964" y="1380" width="180" height="150" as="geometry" />
        </mxCell>
        <mxCell id="Gg7pWfB9Hn6mfg136wM4-303" value="" style="rounded=0;whiteSpace=wrap;html=1;" parent="Gg7pWfB9Hn6mfg136wM4-302" vertex="1">
          <mxGeometry x="-141" y="-10" width="160" height="140" as="geometry" />
        </mxCell>
        <mxCell id="Gg7pWfB9Hn6mfg136wM4-304" style="edgeStyle=orthogonalEdgeStyle;rounded=0;orthogonalLoop=1;jettySize=auto;html=1;exitX=0.25;exitY=1;exitDx=0;exitDy=0;entryX=0.5;entryY=0;entryDx=0;entryDy=0;movable=1;resizable=1;rotatable=1;deletable=1;editable=1;locked=0;connectable=1;" parent="Gg7pWfB9Hn6mfg136wM4-302" source="Gg7pWfB9Hn6mfg136wM4-306" target="Gg7pWfB9Hn6mfg136wM4-307" edge="1">
          <mxGeometry relative="1" as="geometry" />
        </mxCell>
        <mxCell id="Gg7pWfB9Hn6mfg136wM4-305" style="edgeStyle=orthogonalEdgeStyle;rounded=0;orthogonalLoop=1;jettySize=auto;html=1;exitX=0.75;exitY=1;exitDx=0;exitDy=0;entryX=0.5;entryY=0;entryDx=0;entryDy=0;movable=1;resizable=1;rotatable=1;deletable=1;editable=1;locked=0;connectable=1;" parent="Gg7pWfB9Hn6mfg136wM4-302" source="Gg7pWfB9Hn6mfg136wM4-306" target="Gg7pWfB9Hn6mfg136wM4-308" edge="1">
          <mxGeometry relative="1" as="geometry" />
        </mxCell>
        <mxCell id="Gg7pWfB9Hn6mfg136wM4-306" value="incident&lt;div&gt;&lt;span style=&quot;background-color: initial;&quot;&gt;impact: 1&lt;/span&gt;&lt;br&gt;&lt;/div&gt;" style="rounded=0;whiteSpace=wrap;html=1;movable=1;resizable=1;rotatable=1;deletable=1;editable=1;locked=0;connectable=1;" parent="Gg7pWfB9Hn6mfg136wM4-302" vertex="1">
          <mxGeometry x="-121" width="120" height="40" as="geometry" />
        </mxCell>
        <mxCell id="Gg7pWfB9Hn6mfg136wM4-307" value="comp&lt;div&gt;1&lt;/div&gt;" style="rounded=0;whiteSpace=wrap;html=1;movable=1;resizable=1;rotatable=1;deletable=1;editable=1;locked=0;connectable=1;" parent="Gg7pWfB9Hn6mfg136wM4-302" vertex="1">
          <mxGeometry x="-121" y="80" width="40" height="40" as="geometry" />
        </mxCell>
        <mxCell id="Gg7pWfB9Hn6mfg136wM4-308" value="comp&lt;div&gt;4&lt;/div&gt;" style="rounded=0;whiteSpace=wrap;html=1;movable=1;resizable=1;rotatable=1;deletable=1;editable=1;locked=0;connectable=1;" parent="Gg7pWfB9Hn6mfg136wM4-302" vertex="1">
          <mxGeometry x="-41" y="80" width="40" height="40" as="geometry" />
        </mxCell>
        <mxCell id="Gg7pWfB9Hn6mfg136wM4-309" value="" style="shape=flexArrow;endArrow=classic;html=1;rounded=0;" parent="Gg7pWfB9Hn6mfg136wM4-302" edge="1">
          <mxGeometry width="50" height="50" relative="1" as="geometry">
            <mxPoint x="49" y="59.67000000000007" as="sourcePoint" />
            <mxPoint x="139" y="59.67000000000007" as="targetPoint" />
          </mxGeometry>
        </mxCell>
        <mxCell id="Gg7pWfB9Hn6mfg136wM4-310" value="2. We have an incident with target component and founded impact more or eq -&amp;gt; do nothing" style="text;html=1;align=center;verticalAlign=middle;resizable=0;points=[];autosize=1;strokeColor=none;fillColor=none;" parent="1" vertex="1">
          <mxGeometry x="1600" y="1330" width="510" height="30" as="geometry" />
        </mxCell>
        <mxCell id="Gg7pWfB9Hn6mfg136wM4-311" value="" style="rounded=0;whiteSpace=wrap;html=1;" parent="1" vertex="1">
          <mxGeometry x="2110" y="1370" width="313" height="140" as="geometry" />
        </mxCell>
        <mxCell id="Gg7pWfB9Hn6mfg136wM4-312" style="edgeStyle=orthogonalEdgeStyle;rounded=0;orthogonalLoop=1;jettySize=auto;html=1;exitX=0.25;exitY=1;exitDx=0;exitDy=0;entryX=0.5;entryY=0;entryDx=0;entryDy=0;movable=1;resizable=1;rotatable=1;deletable=1;editable=1;locked=0;connectable=1;" parent="1" source="Gg7pWfB9Hn6mfg136wM4-314" target="Gg7pWfB9Hn6mfg136wM4-315" edge="1">
          <mxGeometry relative="1" as="geometry" />
        </mxCell>
        <mxCell id="Gg7pWfB9Hn6mfg136wM4-313" style="edgeStyle=orthogonalEdgeStyle;rounded=0;orthogonalLoop=1;jettySize=auto;html=1;exitX=0.75;exitY=1;exitDx=0;exitDy=0;entryX=0.5;entryY=0;entryDx=0;entryDy=0;movable=1;resizable=1;rotatable=1;deletable=1;editable=1;locked=0;connectable=1;" parent="1" source="Gg7pWfB9Hn6mfg136wM4-314" target="Gg7pWfB9Hn6mfg136wM4-316" edge="1">
          <mxGeometry relative="1" as="geometry" />
        </mxCell>
        <mxCell id="Gg7pWfB9Hn6mfg136wM4-314" value="incident&lt;div&gt;&lt;span style=&quot;background-color: initial;&quot;&gt;impact: 3&lt;/span&gt;&lt;br&gt;&lt;/div&gt;" style="rounded=0;whiteSpace=wrap;html=1;movable=1;resizable=1;rotatable=1;deletable=1;editable=1;locked=0;connectable=1;" parent="1" vertex="1">
          <mxGeometry x="2283" y="1380" width="120" height="40" as="geometry" />
        </mxCell>
        <mxCell id="Gg7pWfB9Hn6mfg136wM4-315" value="comp&lt;div&gt;1&lt;/div&gt;" style="rounded=0;whiteSpace=wrap;html=1;movable=1;resizable=1;rotatable=1;deletable=1;editable=1;locked=0;connectable=1;" parent="1" vertex="1">
          <mxGeometry x="2283" y="1460" width="40" height="40" as="geometry" />
        </mxCell>
        <mxCell id="Gg7pWfB9Hn6mfg136wM4-316" value="comp&lt;div&gt;2&lt;/div&gt;" style="rounded=0;whiteSpace=wrap;html=1;movable=1;resizable=1;rotatable=1;deletable=1;editable=1;locked=0;connectable=1;" parent="1" vertex="1">
          <mxGeometry x="2363" y="1460" width="40" height="40" as="geometry" />
        </mxCell>
        <mxCell id="Gg7pWfB9Hn6mfg136wM4-317" style="edgeStyle=orthogonalEdgeStyle;rounded=0;orthogonalLoop=1;jettySize=auto;html=1;exitX=0.5;exitY=1;exitDx=0;exitDy=0;entryX=0.5;entryY=0;entryDx=0;entryDy=0;" parent="1" source="Gg7pWfB9Hn6mfg136wM4-318" target="Gg7pWfB9Hn6mfg136wM4-319" edge="1">
          <mxGeometry relative="1" as="geometry" />
        </mxCell>
        <mxCell id="Gg7pWfB9Hn6mfg136wM4-318" value="incident&lt;div&gt;&lt;span style=&quot;background-color: initial;&quot;&gt;impact: 1&lt;/span&gt;&lt;br&gt;&lt;/div&gt;" style="rounded=0;whiteSpace=wrap;html=1;" parent="1" vertex="1">
          <mxGeometry x="2125" y="1380" width="120" height="40" as="geometry" />
        </mxCell>
        <mxCell id="Gg7pWfB9Hn6mfg136wM4-319" value="comp&lt;div&gt;4&lt;/div&gt;" style="rounded=0;whiteSpace=wrap;html=1;" parent="1" vertex="1">
          <mxGeometry x="2165" y="1460" width="40" height="40" as="geometry" />
        </mxCell>
        <mxCell id="Gg7pWfB9Hn6mfg136wM4-323" value="" style="edgeStyle=orthogonalEdgeStyle;rounded=0;orthogonalLoop=1;jettySize=auto;html=1;" parent="1" source="Gg7pWfB9Hn6mfg136wM4-320" target="Gg7pWfB9Hn6mfg136wM4-322" edge="1">
          <mxGeometry relative="1" as="geometry" />
        </mxCell>
        <mxCell id="Gg7pWfB9Hn6mfg136wM4-324" value="NO" style="edgeLabel;html=1;align=center;verticalAlign=middle;resizable=0;points=[];" parent="Gg7pWfB9Hn6mfg136wM4-323" vertex="1" connectable="0">
          <mxGeometry x="-0.1603" y="1" relative="1" as="geometry">
            <mxPoint as="offset" />
          </mxGeometry>
        </mxCell>
        <mxCell id="Gg7pWfB9Hn6mfg136wM4-332" style="edgeStyle=orthogonalEdgeStyle;rounded=0;orthogonalLoop=1;jettySize=auto;html=1;exitX=0.5;exitY=1;exitDx=0;exitDy=0;entryX=0.5;entryY=0;entryDx=0;entryDy=0;" parent="1" source="Gg7pWfB9Hn6mfg136wM4-320" target="Gg7pWfB9Hn6mfg136wM4-329" edge="1">
          <mxGeometry relative="1" as="geometry" />
        </mxCell>
        <mxCell id="Gg7pWfB9Hn6mfg136wM4-320" value="existed incident has components" style="rhombus;whiteSpace=wrap;html=1;" parent="1" vertex="1">
          <mxGeometry x="345.5" y="1930" width="80" height="80" as="geometry" />
        </mxCell>
        <mxCell id="Gg7pWfB9Hn6mfg136wM4-322" value="close existed incident" style="whiteSpace=wrap;html=1;" parent="1" vertex="1">
          <mxGeometry x="485.5" y="1940" width="120" height="60" as="geometry" />
        </mxCell>
        <mxCell id="Gg7pWfB9Hn6mfg136wM4-331" style="edgeStyle=orthogonalEdgeStyle;rounded=0;orthogonalLoop=1;jettySize=auto;html=1;exitX=0.5;exitY=1;exitDx=0;exitDy=0;entryX=0.5;entryY=0;entryDx=0;entryDy=0;" parent="1" source="Gg7pWfB9Hn6mfg136wM4-329" target="Gg7pWfB9Hn6mfg136wM4-84" edge="1">
          <mxGeometry relative="1" as="geometry" />
        </mxCell>
        <mxCell id="Gg7pWfB9Hn6mfg136wM4-329" value="create an incident" style="rounded=0;whiteSpace=wrap;html=1;" parent="1" vertex="1">
          <mxGeometry x="325.75" y="2060" width="120" height="60" as="geometry" />
        </mxCell>
        <mxCell id="QH_-a50_sv9gxjxql_aS-5" value="" style="edgeStyle=orthogonalEdgeStyle;rounded=0;orthogonalLoop=1;jettySize=auto;html=1;entryX=0.5;entryY=0;entryDx=0;entryDy=0;" edge="1" parent="1" source="QH_-a50_sv9gxjxql_aS-3" target="Gg7pWfB9Hn6mfg136wM4-79">
          <mxGeometry relative="1" as="geometry">
            <mxPoint x="920" y="1305" as="targetPoint" />
          </mxGeometry>
        </mxCell>
        <mxCell id="QH_-a50_sv9gxjxql_aS-6" value="YES" style="edgeLabel;html=1;align=center;verticalAlign=middle;resizable=0;points=[];" vertex="1" connectable="0" parent="QH_-a50_sv9gxjxql_aS-5">
          <mxGeometry x="-0.0667" y="-3" relative="1" as="geometry">
            <mxPoint as="offset" />
          </mxGeometry>
        </mxCell>
        <mxCell id="QH_-a50_sv9gxjxql_aS-7" style="edgeStyle=orthogonalEdgeStyle;rounded=0;orthogonalLoop=1;jettySize=auto;html=1;exitX=0.5;exitY=1;exitDx=0;exitDy=0;entryX=0.5;entryY=0;entryDx=0;entryDy=0;" edge="1" parent="1" source="QH_-a50_sv9gxjxql_aS-3" target="Gg7pWfB9Hn6mfg136wM4-72">
          <mxGeometry relative="1" as="geometry" />
        </mxCell>
        <mxCell id="QH_-a50_sv9gxjxql_aS-3" value="impact is maintenance" style="rhombus;whiteSpace=wrap;html=1;" vertex="1" parent="1">
          <mxGeometry x="780" y="1265" width="80" height="80" as="geometry" />
        </mxCell>
      </root>
    </mxGraphModel>
  </diagram>
</mxfile>
